<svg xmlns="http://www.w3.org/2000/svg" width="100%" height="100%" viewBox="0 0 1865.879 518">
  <g id="Group_368" data-name="Group 368" transform="translate(-95.5 -300)">
    <path id="logo_J" data-name="Path 341" d="M126.314,690c17.036,58.192,59.046,97.571,136.027,97.571,100.3,0,138.19-58.627,138.19-152.877V315.214a15.231,15.231,0,0,1,30.463,0V635.438C430.993,749.724,384.929,818,262.341,818c-93.53,0-145.713-47.108-166.188-119.057h0A15.729,15.729,0,0,1,126.316,690Z" transform="translate(0 0)" fill="#72e500"/>
    <path id="logo_L" data-name="Path 342" d="M461.2,797.322V315.214a15.231,15.231,0,0,1,30.463,0V782.372H786.615a14.842,14.842,0,1,1,0,29.683H475.96A14.851,14.851,0,0,1,461.2,797.322Z" transform="translate(28.851 0)" fill="#72e500"/>
    <path id="logo_P" data-name="Path 343" d="M1045.785,300H836.162a14.851,14.851,0,0,0-14.751,14.746V799.519a15.231,15.231,0,0,0,30.462,0V598.33h193.913c74.3,0,134.476-68.274,134.476-150.65S1120.083,300,1045.785,300Zm0,268.646H851.872V329.685h193.913c56.466,0,103.273,53.432,103.273,118.738C1149.057,515.213,1102.251,568.646,1045.785,568.646Z" transform="translate(57.256 0)" fill="#72e500"/>
    <path id="logo_Plus" data-name="Path 344" d="M1761.01,337.106C1711.232,302.969,1654.023,300,1625.047,300H1483.033a14.851,14.851,0,0,0-14.751,14.746V797.322a14.851,14.851,0,0,0,14.763,14.734h142c29.72,0,86.929-2.968,135.963-36.363,49.779-33.394,92.127-97.958,92.127-219.664S1810.789,370.5,1761.01,337.106Zm-18.575,412.613c-43.09,29.685-92.126,31.912-118.13,31.912h-125.56v-451.2h118.131c22.288,0,73.552.742,118.874,28.942,46.064,28.2,86.184,84.6,86.184,195.918C1821.934,663.634,1785.528,720.034,1742.435,749.718Z" transform="translate(108.241 0)" fill="#72e500"/>
    <path id="logo_D" data-name="Path 345" d="M1427.926,558.783H1320.565V451.1a14.389,14.389,0,0,0-28.778.007V558.783H1184.427a14.038,14.038,0,0,0,0,28.075h107.361V694.536a14.389,14.389,0,0,0,28.778-.005V586.858h107.361a14.038,14.038,0,1,0,0-28.075Z" transform="translate(84.871 10.638)" fill="#72e500"/>
  </g>
</svg>
