<svg xmlns="http://www.w3.org/2000/svg" width="100%" height="100%" viewBox="0 0 532.891 375.798">
  <g id="Group_369" data-name="Group 369" transform="translate(-38 -43.999)">
    <path id="Path_292" data-name="Path 292" d="M284.6,608.953c12.345,42.217,42.787,70.786,98.571,70.786,72.683,0,100.141-42.533,100.141-110.91V337.053a11.037,11.037,0,1,1,22.075,0V569.368c0,82.912-33.38,132.445-122.215,132.445-67.776,0-105.59-34.175-120.428-86.374h0a11.4,11.4,0,1,1,21.856-6.486Z" transform="translate(-224.271 -282.016)" fill="#72e500"/>
    <path id="Path_293" data-name="Path 293" d="M557.483,686.816V337.053a11.037,11.037,0,1,1,22.075,0V675.97H793.3a10.768,10.768,0,0,1,0,21.535H568.181a10.769,10.769,0,0,1-10.7-10.69Z" transform="translate(-233.176 -282.016)" fill="#72e500"/>
  </g>
</svg>