<svg xmlns="http://www.w3.org/2000/svg" width="100%" height="100%" viewBox="0 0 785.043 373.43">
  <g id="Group_333" data-name="Group 333" transform="translate(-606.324 -43.999)">
    <path id="Path_294" data-name="Path 294" d="M1010.863,326.015h-151.9a10.767,10.767,0,0,0-10.689,10.7v351.7a11.037,11.037,0,1,0,22.075,0V542.448h140.52c53.84,0,97.449-49.532,97.449-109.293S1064.7,326.015,1010.863,326.015Zm0,194.9H870.344V347.551h140.52c40.919,0,74.838,38.764,74.838,86.142C1085.7,482.148,1051.782,520.913,1010.863,520.913Z" transform="translate(-241.946 -282.016)" fill="#72e500"/>
    <path id="Path_295" data-name="Path 295" d="M1582.3,352.935c-36.072-24.766-77.529-26.92-98.527-26.92H1380.858a10.768,10.768,0,0,0-10.689,10.7v350.1a10.768,10.768,0,0,0,10.7,10.69h102.9c21.536,0,62.993-2.154,98.527-26.382,36.072-24.228,66.76-71.068,66.76-159.364S1618.368,377.162,1582.3,352.935Zm-13.46,299.345c-31.227,21.536-66.76,23.151-85.6,23.151h-90.987V348.089h85.6c16.152,0,53.3.538,86.142,21,33.38,20.459,62.454,61.377,62.454,142.136C1626.444,589.827,1600.062,630.745,1568.835,652.28Z" transform="translate(-257.688 -282.016)" fill="#72e500"/>
    <path id="Path_296" data-name="Path 296" d="M1316.317,524.837h-77.8V446.808a10.427,10.427,0,0,0-20.854,0v78.025h-77.8a10.173,10.173,0,1,0,0,20.345h77.8v78.029a10.427,10.427,0,0,0,20.854,0V545.182h77.8a10.173,10.173,0,0,0,0-20.345Z" transform="translate(-250.436 -285.344)" fill="#72e500"/>
  </g>
</svg>