<svg xmlns="http://www.w3.org/2000/svg" width="100%" height="100%" viewBox="0 0 30 30">
  <path id="Path_335" data-name="Path 335" d="M33.276,34.782A11.641,11.641,0,0,1,30.2,36.67a12.751,12.751,0,0,1-13.37-2.517,12.589,12.589,0,0,1-2.47-14.421,12.644,12.644,0,0,1,11-6.785h.16A12.747,12.747,0,0,1,37.641,23.023a12.6,12.6,0,0,1-2.67,10.013l7.852,7.8c.84.88-.395,2.971-1.726,1.716Zm-7.9-19.409a10.228,10.228,0,0,0-9.7,7.91,10.218,10.218,0,0,0,5.886,11.124,10.342,10.342,0,0,0,12.86-4.835c2.826-5.826-1.547-14.036-8.79-14.2Z" transform="translate(-13.097 -12.947)" fill-rule="evenodd"/>
</svg>
