<?xml version="1.0" encoding="utf-8"?>
<!-- Generator: Adobe Illustrator 25.0.0, SVG Export Plug-In . SVG Version: 6.00 Build 0)  -->
<svg version="1.1"
	 id="Layer_1" xmlns:cc="http://creativecommons.org/ns#" xmlns:dc="http://purl.org/dc/elements/1.1/" xmlns:inkscape="http://www.inkscape.org/namespaces/inkscape" xmlns:rdf="http://www.w3.org/1999/02/22-rdf-syntax-ns#" xmlns:sodipodi="http://sodipodi.sourceforge.net/DTD/sodipodi-0.dtd" xmlns:svg="http://www.w3.org/2000/svg"
	 xmlns="http://www.w3.org/2000/svg" xmlns:xlink="http://www.w3.org/1999/xlink" x="0px" y="0px" viewBox="0 0 8.5 8.5"
	 style="enable-background:new 0 0 8.5 8.5;" xml:space="preserve">
<g>
	<path d="M4.2,0C4.2,0,4.1,0,4,0.1L2.1,2.6C2,2.7,2.1,2.9,2.2,3C2.2,3,2.3,3,2.3,3h1v2.5c0,0.1,0.1,0.3,0.3,0.3h1.3
		c0.1,0,0.3-0.1,0.3-0.3V3h1c0.1,0,0.3-0.1,0.3-0.3c0-0.1,0-0.1-0.1-0.2L4.4,0.1C4.4,0,4.3,0,4.2,0z M4.2,0.7l1.4,1.8H4.9
		c-0.1,0-0.3,0.1-0.3,0.3c0,0,0,0,0,0v2.5H3.9V2.7c0-0.1-0.1-0.3-0.3-0.3c0,0,0,0,0,0H2.9L4.2,0.7z M0.2,5.6C0.1,5.6,0,5.8,0,5.9
		v2.3c0,0.1,0.1,0.3,0.3,0.3h7.9c0.1,0,0.3-0.1,0.3-0.3V5.9c0-0.1-0.1-0.3-0.3-0.3H6.4c-0.1,0-0.3,0.1-0.3,0.3v0.6H2.4V5.9
		c0-0.1-0.1-0.3-0.3-0.3H0.2C0.3,5.6,0.2,5.6,0.2,5.6z M0.5,6.2h1.3v0.6c0,0.1,0.1,0.3,0.3,0.3c0,0,0,0,0,0h4.3
		c0.1,0,0.3-0.1,0.3-0.3c0,0,0,0,0,0V6.2h1.3v1.8H0.5L0.5,6.2z"/>
</g>
</svg>
